<svg id="SvgjsSvg1011" width="288" height="288" xmlns="http://www.w3.org/2000/svg" version="1.1" xmlns:xlink="http://www.w3.org/1999/xlink" xmlns:svgjs="http://svgjs.com/svgjs"><defs id="SvgjsDefs1012"></defs><g id="SvgjsG1013"><svg xmlns="http://www.w3.org/2000/svg" viewBox="0 -960 960 960" width="288" height="288"><path d="M751-596 596-751l70-70q17-17 42-17t42 17l71 71q17 17 17 42t-17 42l-70 70ZM120-120v-156l194-194L93-692l174-176 223 223 106-106 155 155-106 106 223 223L693-94 471-315 276-120H120Zm237-393 90-90-73-73-48 48-42-42 48-48-64-64-90 90 179 179Zm334 335 90-90-64-64-48 48-42-42 48-48-73-73-90 90 179 179Zm-511-2h70l415-415-70-70-415 415v70Z" fill="#ad8f86" class="color000 svgShape"></path></svg></g></svg>