<svg id="SvgjsSvg1026" width="288" height="288" xmlns="http://www.w3.org/2000/svg" version="1.1" xmlns:xlink="http://www.w3.org/1999/xlink" xmlns:svgjs="http://svgjs.com/svgjs"><defs id="SvgjsDefs1027"></defs><g id="SvgjsG1028"><svg xmlns="http://www.w3.org/2000/svg" viewBox="0 -960 960 960" width="288" height="288"><path d="M480-120q-63 0-106.5-43.5T330-270H180q-24 0-42-18t-18-42q0-152 93.5-258T450-705v-135h60v135q143 11 236.5 117T840-330q0 24-18 42t-42 18H630q0 63-43.5 106.5T480-120ZM180-330h600q0-132-87.5-223.5T480-645q-125 0-212.5 91.5T180-330Zm300 150q38 0 64-26t26-64H390q0 38 26 64t64 26Zm0-90Z" fill="#ad8f86" class="color000 svgShape"></path></svg></g></svg>